<?xml version="1.0" encoding="UTF-8"?>
<svg width="96" height="96" viewBox="0 0 96 96" fill="none" xmlns="http://www.w3.org/2000/svg">
  <!-- Background Circle with Gradient -->
  <defs>
    <linearGradient id="bgGradient" x1="0%" y1="0%" x2="100%" y2="100%">
      <stop offset="0%" style="stop-color:#2C3E50;stop-opacity:1" />
      <stop offset="100%" style="stop-color:#34495E;stop-opacity:1" />
    </linearGradient>
  </defs>
  <circle cx="48" cy="48" r="48" fill="url(#bgGradient)"/>
  
  <!-- Decorative Circle -->
  <circle cx="48" cy="48" r="36" fill="none" stroke="#ECF0F1" stroke-width="1" stroke-opacity="0.1"/>
  
  <!-- Plus Sign with Gradient -->
  <defs>
    <linearGradient id="plusGradient" x1="0%" y1="0%" x2="100%" y2="100%">
      <stop offset="0%" style="stop-color:#2ECC71;stop-opacity:1" />
      <stop offset="100%" style="stop-color:#27AE60;stop-opacity:1" />
    </linearGradient>
  </defs>
  <path d="M48 24c-2.2 0-4 1.8-4 4v16H28c-2.2 0-4 1.8-4 4s1.8 4 4 4h16v16c0 2.2 1.8 4 4 4s4-1.8 4-4V52h16c2.2 0 4-1.8 4-4s-1.8-4-4-4H52V28c0-2.2-1.8-4-4-4z" 
        fill="url(#plusGradient)"/>
  
  <!-- Shine Effect -->
  <circle cx="34" cy="34" r="8" fill="#FFFFFF" opacity="0.1"/>
</svg> 